<?xml version="1.0" encoding="utf-8"?>
<svg version="1.1" xmlns="http://www.w3.org/2000/svg"
	xmlns:xlink="http://www.w3.org/1999/xlink" x="0px" y="0px"
	viewBox="0 0 410 253" xml:space="preserve">
<style type="text/css">
	.st5 {
		opacity: 0.4;
		fill: #fff;
	}

	#spinner > g {
		--time: 0.4s;
		animation: fade var(--time) infinite;
	}
	#spinner > g:nth-child(1) { animation-delay: calc(var(--time) * 1 / 8); }
	#spinner > g:nth-child(2) { animation-delay: calc(var(--time) * 2 / 8); }
	#spinner > g:nth-child(3) { animation-delay: calc(var(--time) * 3 / 8); }
	#spinner > g:nth-child(4) { animation-delay: calc(var(--time) * 4 / 8); }
	#spinner > g:nth-child(5) { animation-delay: calc(var(--time) * 5 / 8); }
	#spinner > g:nth-child(6) { animation-delay: calc(var(--time) * 6 / 8); }
	#spinner > g:nth-child(7) { animation-delay: calc(var(--time) * 7 / 8); }

	@keyframes fade {
		0% {
			opacity: 0;
		}
		40% {
			opacity: 1;
		}
		100% {
			opacity: 0;
		}
	}
</style>
<g id="spinner">
	<g id="_x3C_Radial_Repeat_x3E__00000108291006650894662160000008135899211570740615_">
		<path class="st5" d="M203.9,175.8l-1.3,1.3c-0.7,0.7-1.8,0.7-2.5,0l-7.2-7.2c-0.7-0.7-0.7-1.8,0-2.5l1.3-1.3
			c0.7-0.7,1.8-0.7,2.5,0l7.2,7.2C204.6,173.9,204.6,175.1,203.9,175.8z"/>
	</g>
	<g id="_x3C_Radial_Repeat_x3E__00000008840700847642246400000013539986790767432894_">
		<path class="st5" d="M209.4,177.1h-1.9c-1,0-1.8-0.8-1.8-1.8v-10.2c0-1,0.8-1.8,1.8-1.8h1.9c1,0,1.8,0.8,1.8,1.8v10.2
			C211.2,176.3,210.4,177.1,209.4,177.1z"/>
	</g>
	<g id="_x3C_Radial_Repeat_x3E__00000073694751150073450260000010054263958893849531_">
		<path class="st5" d="M212.4,182l-1.3-1.3c-0.7-0.7-0.7-1.8,0-2.5l7.2-7.2c0.7-0.7,1.8-0.7,2.5,0l1.3,1.3c0.7,0.7,0.7,1.8,0,2.5
			l-7.2,7.2C214.2,182.7,213.1,182.7,212.4,182z"/>
	</g>
	<g id="_x3C_Radial_Repeat_x3E__00000167395024776741401480000016553108497400071819_">
		<path class="st5" d="M211,187.6v-1.9c0-1,0.8-1.8,1.8-1.8H223c1,0,1.8,0.8,1.8,1.8v1.9c0,1-0.8,1.8-1.8,1.8h-10.2
			C211.8,189.3,211,188.5,211,187.6z"/>
	</g>
	<g id="_x3C_Radial_Repeat_x3E__00000085211437196716841160000015263373610026267809_">
		<path class="st5" d="M206.1,190.5l1.3-1.3c0.7-0.7,1.8-0.7,2.5,0l7.2,7.2c0.7,0.7,0.7,1.8,0,2.5l-1.3,1.3c-0.7,0.7-1.8,0.7-2.5,0
			l-7.2-7.2C205.4,192.3,205.4,191.2,206.1,190.5z"/>
	</g>
	<g id="_x3C_Radial_Repeat_x3E__00000087399895049396153390000004849555555641546428_">
		<path class="st5" d="M200.6,189.2h1.9c1,0,1.8,0.8,1.8,1.8v10.2c0,1-0.8,1.8-1.8,1.8h-1.9c-1,0-1.8-0.8-1.8-1.8v-10.2
			C198.8,190,199.6,189.2,200.6,189.2z"/>
	</g>
	<g id="_x3C_Radial_Repeat_x3E__00000065766103154217070550000008105786057598707849_">
		<path class="st5" d="M197.6,184.3l1.3,1.3c0.7,0.7,0.7,1.8,0,2.5l-7.2,7.2c-0.7,0.7-1.8,0.7-2.5,0l-1.3-1.3
			c-0.7-0.7-0.7-1.8,0-2.5l7.2-7.2C195.8,183.6,196.9,183.6,197.6,184.3z"/>
	</g>
	<g id="_x3C_Radial_Repeat_x3E__00000173839163675839207080000013266691367139720841_">
		<path class="st5" d="M199,178.7v1.9c0,1-0.8,1.8-1.8,1.8H187c-1,0-1.8-0.8-1.8-1.8v-1.9c0-1,0.8-1.8,1.8-1.8h10.2
			C198.2,176.9,199,177.7,199,178.7z"/>
	</g>
</g>
</svg>
